<svg width="597.347" height="295.816" xmlns="http://www.w3.org/2000/svg" xmlns:svg="http://www.w3.org/2000/svg" xmlns:xlink="http://www.w3.org/1999/xlink">
 <title>red car</title>
 <defs>
  <linearGradient id="linearGradient6250">
   <stop id="stop6252" stop-color="#bcbcbc" offset="0"/>
   <stop id="stop6254" stop-color="#bcbcbc" stop-opacity="0" offset="1"/>
  </linearGradient>
  <linearGradient id="linearGradient5247">
   <stop id="stop5249" stop-color="#ffffff" offset="0"/>
   <stop id="stop5251" stop-color="#ffffff" stop-opacity="0" offset="1"/>
  </linearGradient>
  <linearGradient id="linearGradient5234">
   <stop id="stop5236" stop-color="#000000" offset="0"/>
   <stop id="stop5242" stop-color="#3c3c3c" offset="0.81319"/>
   <stop id="stop5238" stop-color="#000000" offset="1"/>
  </linearGradient>
  <linearGradient id="linearGradient16120">
   <stop id="stop16122" stop-color="#ffffff" offset="0"/>
   <stop id="stop16124" stop-color="#ffffff" stop-opacity="0" offset="1"/>
  </linearGradient>
  <radialGradient id="radialGradient8290" gradientUnits="userSpaceOnUse" gradientTransform="matrix(1 0 0 1 1.4858e-008 2.1719)" cx="173.108" cy="532.029" r="61.0672" fx="173.108" fy="532.029" xlink:href="#linearGradient5234"/>
  <linearGradient id="linearGradient8292" x1="0.21" y1="-0.63621" x2="0.29007" y2="1" xlink:href="#linearGradient5247"/>
  <linearGradient id="linearGradient8294" x1="0.83965" y1="1.03016" x2="0.31944" y2="0.3" xlink:href="#linearGradient6250"/>
  <linearGradient id="linearGradient8304" x1="0.83965" y1="1.03016" x2="0.31944" y2="0.3" xlink:href="#linearGradient6250"/>
  <linearGradient id="linearGradient8306" x1="0.83965" y1="1.03016" x2="0.31944" y2="0.3" xlink:href="#linearGradient6250"/>
  <radialGradient id="radialGradient8308" gradientUnits="userSpaceOnUse" gradientTransform="matrix(1 0 0 1 1.4858e-008 2.1719)" cx="177.85" cy="532.736" r="8.09025" fx="177.85" fy="532.736" xlink:href="#linearGradient16120"/>
  <linearGradient id="svg_5" x1="0.16035" y1="-0.03016" x2="0.68056" y2="0.7" xlink:href="#linearGradient6250"/>
  <linearGradient id="svg_6" x1="0.16035" y1="-0.03016" x2="0.68056" y2="0.7" xlink:href="#linearGradient6250"/>
  <linearGradient id="svg_7" x1="0.16035" y1="-0.03016" x2="0.68056" y2="0.7" xlink:href="#linearGradient6250"/>
  <linearGradient id="svg_8" x1="0.16035" y1="-0.03016" x2="0.68056" y2="0.7" xlink:href="#linearGradient6250"/>
 </defs>
 <metadata id="metadata7">image/svg+xml</metadata>
 <g>
  <title>Layer 1</title>
  <g id="g8277" transform="matrix(0.920555,0,0,0.920853,-0.879261,-44.4963) ">
   <path id="path3292" fill="url(#radialGradient8290)" fill-rule="evenodd" marker-end="none" marker-mid="none" marker-start="none" stroke-dashoffset="0" stroke-miterlimit="4" stroke-width="11.4" d="m184.3366,265.49899c0,33.72602 -27.341,61.06702 -61.067,61.06702c-33.7266,0 -61.0673,-27.341 -61.0673,-61.06702c0,-33.72699 27.3407,-61.06698 61.0673,-61.06698c33.726,0 61.067,27.33999 61.067,61.06698z"/>
   <path id="path3294" fill="#999999" fill-rule="evenodd" marker-end="none" marker-mid="none" marker-start="none" stroke-dashoffset="0" stroke-miterlimit="4" stroke-width="11.4" d="m166.4996,264.173c0,23.69199 -19.206,42.89801 -42.899,42.89801c-23.6917,0 -42.898,-19.20602 -42.898,-42.89801c0,-23.692 19.2063,-42.899 42.898,-42.899c23.693,0 42.899,19.207 42.899,42.899z"/>
   <path id="path5244" fill="url(#linearGradient8292)" fill-rule="evenodd" marker-end="none" marker-mid="none" marker-start="none" stroke-dashoffset="0" stroke-miterlimit="4" stroke-width="11.4" d="m164.84161,264.10501c-35.79401,-41.17801 -46.05901,10.36899 -82.48151,0c0,-22.76501 18.4759,-41.24101 41.2405,-41.24101c22.76499,0 41.24101,18.476 41.24101,41.24101z"/>
   <path id="path6262" fill="#080808" fill-rule="evenodd" marker-end="none" marker-mid="none" marker-start="none" stroke="url(#linearGradient8294)" stroke-dashoffset="0" stroke-miterlimit="4" stroke-width="2.32136" d="m104.7746,252.08701c-2.7598,2.15199 -7.1903,1.084 -9.8956,-2.38501c-2.7053,-3.47 -2.661,-8.027 0.0989,-10.179c2.7599,-2.152 7.1904,-1.084 9.8957,2.386c2.705,3.46901 2.661,8.026 -0.099,10.17801z"/>
   <path id="path6266" fill="#080808" fill-rule="evenodd" marker-end="none" marker-mid="none" marker-start="none" stroke="url(#svg_8)" stroke-dashoffset="0" stroke-miterlimit="4" stroke-width="2.32136" d="m121.1366,242.256c-3.397,-0.842 -5.293,-4.986 -4.235,-9.25701c1.058,-4.26999 4.669,-7.04999 8.066,-6.20799c3.397,0.841 5.293,4.985 4.235,9.256c-1.058,4.27 -4.669,7.05 -8.066,6.209z"/>
   <path id="path6270" fill="#080808" fill-rule="evenodd" marker-end="none" marker-mid="none" marker-start="none" stroke="url(#svg_7)" stroke-dashoffset="0" stroke-miterlimit="4" stroke-width="2.32136" d="m139.1406,249.261c-1.42199,-3.197 0.68399,-7.239 4.704,-9.02701c4.02,-1.78799 8.432,-0.64499 9.854,2.55301c1.422,3.19699 -0.68401,7.239 -4.70399,9.027c-4.02001,1.78801 -8.43201,0.645 -9.85401,-2.553z"/>
   <path id="path6274" fill="#080808" fill-rule="evenodd" marker-end="none" marker-mid="none" marker-start="none" stroke="url(#svg_6)" stroke-dashoffset="0" stroke-miterlimit="4" stroke-width="2.32136" d="m144.7456,266.37701c1.47101,-3.17501 5.90001,-4.251 9.892,-2.402c3.992,1.84899 6.03601,5.92199 4.56601,9.09799c-1.47101,3.17599 -5.90001,4.251 -9.892,2.40201c-3.99201,-1.849 -6.03601,-5.922 -4.56601,-9.098z"/>
   <path id="path6278" fill="#080808" fill-rule="evenodd" marker-end="none" marker-mid="none" marker-start="none" stroke="url(#svg_5)" stroke-dashoffset="0" stroke-miterlimit="4" stroke-width="2.32136" d="m134.92361,282.301c3.39,-0.86899 7.02398,1.88101 8.11599,6.143c1.09301,4.26199 -0.77,8.422 -4.16,9.29001c-3.39,0.86899 -7.024,-1.88101 -8.116,-6.14301c-1.093,-4.26199 0.76999,-8.42099 4.16001,-9.29z"/>
   <path id="path6282" fill="#080808" fill-rule="evenodd" marker-end="none" marker-mid="none" marker-start="none" stroke="url(#linearGradient8304)" stroke-dashoffset="0" stroke-miterlimit="4" stroke-width="2.32136" d="m115.1666,284.345c2.673,2.259 2.538,6.815 -0.303,10.17499c-2.84,3.36001 -7.309,4.25302 -9.982,1.99402c-2.673,-2.25901 -2.537,-6.815 0.303,-10.17502c2.84,-3.35999 7.309,-4.25299 9.982,-1.99399z"/>
   <path id="path6288" fill="#080808" fill-rule="evenodd" marker-end="none" marker-mid="none" marker-start="none" stroke="url(#linearGradient8306)" stroke-dashoffset="0" stroke-miterlimit="4" stroke-width="2.32136" d="m102.1699,270.30399c-0.1339,3.49701 -3.8064,6.19601 -8.2029,6.02801c-4.3964,-0.16901 -7.8519,-3.14001 -7.718,-6.63699c0.1339,-3.49701 3.8064,-6.19602 8.2029,-6.02802c4.3964,0.16901 7.8517,3.14002 7.718,6.637z"/>
   <path id="path6329" opacity="0.37657" fill="url(#radialGradient8308)" fill-rule="evenodd" marker-end="none" marker-mid="none" marker-start="none" stroke="#bcbcbc" stroke-dashoffset="0" stroke-miterlimit="4" stroke-width="0.6" d="m131.39159,264.173c0,4.30201 -3.48799,7.79001 -7.79099,7.79001c-4.302,0 -7.79,-3.488 -7.79,-7.79001c0,-4.303 3.488,-7.79001 7.79,-7.79001c4.303,0 7.79099,3.48701 7.79099,7.79001z"/>
  </g>
 </g>
</svg>